<mxfile host="app.diagrams.net" agent="Mozilla/5.0 (Windows NT 10.0; Win64; x64) AppleWebKit/537.36 (KHTML, like Gecko) Chrome/135.0.0.0 Safari/537.36" version="26.2.14">
  <diagram name="Страница — 1" id="K72ew5g7vN5cwcbpa5XK">
    <mxGraphModel dx="2108" dy="623" grid="1" gridSize="10" guides="1" tooltips="1" connect="1" arrows="1" fold="1" page="1" pageScale="1" pageWidth="827" pageHeight="1169" math="0" shadow="0">
      <root>
        <mxCell id="0" />
        <mxCell id="1" parent="0" />
        <mxCell id="w5YBF5PKqjgF5pRnZRAa-2" value="Неавторизированный&amp;nbsp;&lt;div&gt;пользователь&lt;/div&gt;" style="shape=umlActor;verticalLabelPosition=bottom;verticalAlign=top;html=1;outlineConnect=0;" parent="1" vertex="1">
          <mxGeometry x="60" y="190" width="30" height="60" as="geometry" />
        </mxCell>
        <mxCell id="w5YBF5PKqjgF5pRnZRAa-4" value="&lt;font style=&quot;font-size: 14px;&quot;&gt;Регистрация&lt;/font&gt;" style="ellipse;whiteSpace=wrap;html=1;" parent="1" vertex="1">
          <mxGeometry x="180" y="90" width="120" height="80" as="geometry" />
        </mxCell>
        <mxCell id="w5YBF5PKqjgF5pRnZRAa-5" value="" style="endArrow=none;html=1;rounded=0;entryX=0.003;entryY=0.658;entryDx=0;entryDy=0;entryPerimeter=0;exitX=1;exitY=0.3333333333333333;exitDx=0;exitDy=0;exitPerimeter=0;" parent="1" source="w5YBF5PKqjgF5pRnZRAa-2" target="w5YBF5PKqjgF5pRnZRAa-4" edge="1">
          <mxGeometry width="50" height="50" relative="1" as="geometry">
            <mxPoint x="100" y="210" as="sourcePoint" />
            <mxPoint x="170" y="160" as="targetPoint" />
          </mxGeometry>
        </mxCell>
        <mxCell id="w5YBF5PKqjgF5pRnZRAa-6" value="&lt;font style=&quot;font-size: 14px;&quot;&gt;Авторизация&lt;/font&gt;" style="ellipse;whiteSpace=wrap;html=1;" parent="1" vertex="1">
          <mxGeometry x="180" y="290" width="120" height="80" as="geometry" />
        </mxCell>
        <mxCell id="w5YBF5PKqjgF5pRnZRAa-7" value="" style="endArrow=none;html=1;rounded=0;exitX=1;exitY=0.3333333333333333;exitDx=0;exitDy=0;exitPerimeter=0;entryX=0;entryY=0.375;entryDx=0;entryDy=0;entryPerimeter=0;" parent="1" source="w5YBF5PKqjgF5pRnZRAa-2" target="w5YBF5PKqjgF5pRnZRAa-6" edge="1">
          <mxGeometry width="50" height="50" relative="1" as="geometry">
            <mxPoint x="130" y="250" as="sourcePoint" />
            <mxPoint x="180" y="200" as="targetPoint" />
          </mxGeometry>
        </mxCell>
        <mxCell id="w5YBF5PKqjgF5pRnZRAa-8" value="" style="endArrow=classic;html=1;rounded=0;exitX=0.5;exitY=1;exitDx=0;exitDy=0;entryX=0.5;entryY=0;entryDx=0;entryDy=0;" parent="1" source="w5YBF5PKqjgF5pRnZRAa-4" target="w5YBF5PKqjgF5pRnZRAa-6" edge="1">
          <mxGeometry width="50" height="50" relative="1" as="geometry">
            <mxPoint x="240" y="240" as="sourcePoint" />
            <mxPoint x="290" y="190" as="targetPoint" />
          </mxGeometry>
        </mxCell>
        <mxCell id="w5YBF5PKqjgF5pRnZRAa-9" value="Сервер&lt;div&gt;&lt;br&gt;&lt;/div&gt;" style="shape=umlActor;verticalLabelPosition=bottom;verticalAlign=top;html=1;outlineConnect=0;" parent="1" vertex="1">
          <mxGeometry x="430" y="190" width="30" height="60" as="geometry" />
        </mxCell>
        <mxCell id="w5YBF5PKqjgF5pRnZRAa-10" value="" style="endArrow=none;html=1;rounded=0;exitX=1;exitY=0.5;exitDx=0;exitDy=0;entryX=0;entryY=0.3333333333333333;entryDx=0;entryDy=0;entryPerimeter=0;" parent="1" source="w5YBF5PKqjgF5pRnZRAa-4" target="w5YBF5PKqjgF5pRnZRAa-9" edge="1">
          <mxGeometry width="50" height="50" relative="1" as="geometry">
            <mxPoint x="340" y="190" as="sourcePoint" />
            <mxPoint x="390" y="140" as="targetPoint" />
          </mxGeometry>
        </mxCell>
        <mxCell id="w5YBF5PKqjgF5pRnZRAa-11" value="" style="endArrow=none;html=1;rounded=0;exitX=1;exitY=0.5;exitDx=0;exitDy=0;" parent="1" source="w5YBF5PKqjgF5pRnZRAa-6" edge="1">
          <mxGeometry width="50" height="50" relative="1" as="geometry">
            <mxPoint x="350" y="340" as="sourcePoint" />
            <mxPoint x="430" y="210" as="targetPoint" />
          </mxGeometry>
        </mxCell>
        <mxCell id="w5YBF5PKqjgF5pRnZRAa-12" value="Авторизированный&lt;div&gt;пользователь&lt;/div&gt;&lt;div&gt;&lt;br&gt;&lt;/div&gt;" style="shape=umlActor;verticalLabelPosition=bottom;verticalAlign=top;html=1;outlineConnect=0;" parent="1" vertex="1">
          <mxGeometry x="60" y="490" width="30" height="60" as="geometry" />
        </mxCell>
        <mxCell id="w5YBF5PKqjgF5pRnZRAa-13" value="" style="endArrow=block;dashed=1;endFill=0;endSize=12;html=1;rounded=0;exitX=0.5;exitY=1;exitDx=0;exitDy=0;entryX=1;entryY=0.3333333333333333;entryDx=0;entryDy=0;entryPerimeter=0;" parent="1" source="w5YBF5PKqjgF5pRnZRAa-6" target="w5YBF5PKqjgF5pRnZRAa-12" edge="1">
          <mxGeometry width="160" relative="1" as="geometry">
            <mxPoint x="230" y="430" as="sourcePoint" />
            <mxPoint x="390" y="430" as="targetPoint" />
          </mxGeometry>
        </mxCell>
        <mxCell id="w5YBF5PKqjgF5pRnZRAa-14" value="&lt;font style=&quot;font-size: 14px;&quot;&gt;Сбросить пароль&lt;/font&gt;" style="ellipse;whiteSpace=wrap;html=1;" parent="1" vertex="1">
          <mxGeometry x="190" y="470" width="120" height="80" as="geometry" />
        </mxCell>
        <mxCell id="w5YBF5PKqjgF5pRnZRAa-15" value="" style="endArrow=none;html=1;rounded=0;exitX=1;exitY=0.3333333333333333;exitDx=0;exitDy=0;exitPerimeter=0;entryX=0;entryY=0.5;entryDx=0;entryDy=0;" parent="1" source="w5YBF5PKqjgF5pRnZRAa-12" target="w5YBF5PKqjgF5pRnZRAa-14" edge="1">
          <mxGeometry width="50" height="50" relative="1" as="geometry">
            <mxPoint x="120" y="520" as="sourcePoint" />
            <mxPoint x="170" y="470" as="targetPoint" />
          </mxGeometry>
        </mxCell>
        <mxCell id="w5YBF5PKqjgF5pRnZRAa-16" value="" style="endArrow=none;html=1;rounded=0;exitX=1;exitY=0.5;exitDx=0;exitDy=0;" parent="1" source="w5YBF5PKqjgF5pRnZRAa-14" target="w5YBF5PKqjgF5pRnZRAa-9" edge="1">
          <mxGeometry width="50" height="50" relative="1" as="geometry">
            <mxPoint x="480" y="460" as="sourcePoint" />
            <mxPoint x="530" y="410" as="targetPoint" />
          </mxGeometry>
        </mxCell>
        <mxCell id="w5YBF5PKqjgF5pRnZRAa-17" value="&lt;font style=&quot;font-size: 14px;&quot;&gt;Ввести данные&lt;/font&gt;" style="ellipse;whiteSpace=wrap;html=1;" parent="1" vertex="1">
          <mxGeometry x="-110" y="800" width="120" height="80" as="geometry" />
        </mxCell>
        <mxCell id="w5YBF5PKqjgF5pRnZRAa-20" value="&lt;font style=&quot;font-size: 13px;&quot;&gt;Ввести параметр &quot;Бренд&quot;&lt;/font&gt;" style="ellipse;whiteSpace=wrap;html=1;" parent="1" vertex="1">
          <mxGeometry x="150" y="970" width="120" height="80" as="geometry" />
        </mxCell>
        <mxCell id="w5YBF5PKqjgF5pRnZRAa-24" value="&lt;font style=&quot;font-size: 13px;&quot;&gt;Ввести параметр &quot;Цвет&quot;&lt;/font&gt;" style="ellipse;whiteSpace=wrap;html=1;" parent="1" vertex="1">
          <mxGeometry x="25" y="1020" width="120" height="80" as="geometry" />
        </mxCell>
        <mxCell id="w5YBF5PKqjgF5pRnZRAa-25" value="&lt;font style=&quot;font-size: 13px;&quot;&gt;Ввести параметр &quot;Объем топливного бака в литрах&quot;&lt;/font&gt;" style="ellipse;whiteSpace=wrap;html=1;" parent="1" vertex="1">
          <mxGeometry x="-105" y="1010" width="130" height="80" as="geometry" />
        </mxCell>
        <mxCell id="w5YBF5PKqjgF5pRnZRAa-27" value="&lt;font style=&quot;font-size: 13px;&quot;&gt;Ввести параметр &quot;Расход топлива на 100 км&quot;&lt;/font&gt;" style="ellipse;whiteSpace=wrap;html=1;" parent="1" vertex="1">
          <mxGeometry x="-395" y="870" width="120" height="80" as="geometry" />
        </mxCell>
        <mxCell id="w5YBF5PKqjgF5pRnZRAa-28" value="&lt;font style=&quot;font-size: 13px;&quot;&gt;Ввести параметр &quot;Грузоподъемность&quot;&lt;/font&gt;" style="ellipse;whiteSpace=wrap;html=1;" parent="1" vertex="1">
          <mxGeometry x="-400" y="980" width="130" height="80" as="geometry" />
        </mxCell>
        <mxCell id="w5YBF5PKqjgF5pRnZRAa-29" value="&lt;font style=&quot;font-size: 13px;&quot;&gt;Ввести параметр &quot;Цена на топливо&quot;&lt;/font&gt;" style="ellipse;whiteSpace=wrap;html=1;" parent="1" vertex="1">
          <mxGeometry x="-235" y="1000" width="120" height="80" as="geometry" />
        </mxCell>
        <mxCell id="w5YBF5PKqjgF5pRnZRAa-30" value="&lt;font style=&quot;font-size: 13px;&quot;&gt;Выбрать класс автомобиля: грузовой или легковой&lt;/font&gt;" style="ellipse;whiteSpace=wrap;html=1;" parent="1" vertex="1">
          <mxGeometry x="160" y="870" width="130" height="80" as="geometry" />
        </mxCell>
        <mxCell id="w5YBF5PKqjgF5pRnZRAa-31" value="&lt;font style=&quot;font-size: 14px;&quot;&gt;Include&lt;/font&gt;" style="endArrow=open;endSize=12;dashed=1;html=1;rounded=0;exitX=0.5;exitY=1;exitDx=0;exitDy=0;entryX=1;entryY=0.5;entryDx=0;entryDy=0;" parent="1" source="w5YBF5PKqjgF5pRnZRAa-17" target="w5YBF5PKqjgF5pRnZRAa-27" edge="1">
          <mxGeometry width="160" relative="1" as="geometry">
            <mxPoint x="140" y="810" as="sourcePoint" />
            <mxPoint x="300" y="810" as="targetPoint" />
          </mxGeometry>
        </mxCell>
        <mxCell id="w5YBF5PKqjgF5pRnZRAa-32" value="&lt;font style=&quot;font-size: 14px;&quot;&gt;Include&lt;/font&gt;" style="endArrow=open;endSize=12;dashed=1;html=1;rounded=0;exitX=0.5;exitY=1;exitDx=0;exitDy=0;entryX=0.5;entryY=0;entryDx=0;entryDy=0;" parent="1" source="w5YBF5PKqjgF5pRnZRAa-17" target="w5YBF5PKqjgF5pRnZRAa-28" edge="1">
          <mxGeometry width="160" relative="1" as="geometry">
            <mxPoint x="150" y="820" as="sourcePoint" />
            <mxPoint x="310" y="820" as="targetPoint" />
          </mxGeometry>
        </mxCell>
        <mxCell id="w5YBF5PKqjgF5pRnZRAa-33" value="&lt;font style=&quot;font-size: 14px;&quot;&gt;Include&lt;/font&gt;" style="endArrow=open;endSize=12;dashed=1;html=1;rounded=0;exitX=0.5;exitY=1;exitDx=0;exitDy=0;entryX=0.5;entryY=0;entryDx=0;entryDy=0;" parent="1" source="w5YBF5PKqjgF5pRnZRAa-17" target="w5YBF5PKqjgF5pRnZRAa-29" edge="1">
          <mxGeometry width="160" relative="1" as="geometry">
            <mxPoint x="160" y="830" as="sourcePoint" />
            <mxPoint x="320" y="830" as="targetPoint" />
          </mxGeometry>
        </mxCell>
        <mxCell id="w5YBF5PKqjgF5pRnZRAa-34" value="&lt;font style=&quot;font-size: 14px;&quot;&gt;Include&lt;/font&gt;" style="endArrow=open;endSize=12;dashed=1;html=1;rounded=0;exitX=0.5;exitY=1;exitDx=0;exitDy=0;entryX=0.5;entryY=0;entryDx=0;entryDy=0;" parent="1" source="w5YBF5PKqjgF5pRnZRAa-17" target="w5YBF5PKqjgF5pRnZRAa-25" edge="1">
          <mxGeometry width="160" relative="1" as="geometry">
            <mxPoint x="170" y="840" as="sourcePoint" />
            <mxPoint x="330" y="840" as="targetPoint" />
          </mxGeometry>
        </mxCell>
        <mxCell id="w5YBF5PKqjgF5pRnZRAa-35" value="&lt;font style=&quot;font-size: 14px;&quot;&gt;Include&lt;/font&gt;" style="endArrow=open;endSize=12;dashed=1;html=1;rounded=0;exitX=0.5;exitY=1;exitDx=0;exitDy=0;entryX=0.5;entryY=0;entryDx=0;entryDy=0;" parent="1" source="w5YBF5PKqjgF5pRnZRAa-17" target="w5YBF5PKqjgF5pRnZRAa-24" edge="1">
          <mxGeometry width="160" relative="1" as="geometry">
            <mxPoint x="180" y="850" as="sourcePoint" />
            <mxPoint x="340" y="850" as="targetPoint" />
          </mxGeometry>
        </mxCell>
        <mxCell id="w5YBF5PKqjgF5pRnZRAa-36" value="&lt;font style=&quot;font-size: 14px;&quot;&gt;Include&lt;/font&gt;" style="endArrow=open;endSize=12;dashed=1;html=1;rounded=0;exitX=0.5;exitY=1;exitDx=0;exitDy=0;entryX=0;entryY=0;entryDx=0;entryDy=0;" parent="1" source="w5YBF5PKqjgF5pRnZRAa-17" target="w5YBF5PKqjgF5pRnZRAa-20" edge="1">
          <mxGeometry width="160" relative="1" as="geometry">
            <mxPoint x="190" y="860" as="sourcePoint" />
            <mxPoint x="350" y="860" as="targetPoint" />
          </mxGeometry>
        </mxCell>
        <mxCell id="w5YBF5PKqjgF5pRnZRAa-39" value="&lt;font style=&quot;font-size: 14px;&quot;&gt;Include&lt;/font&gt;" style="endArrow=open;endSize=12;dashed=1;html=1;rounded=0;exitX=0.5;exitY=1;exitDx=0;exitDy=0;entryX=0;entryY=0.5;entryDx=0;entryDy=0;" parent="1" source="w5YBF5PKqjgF5pRnZRAa-17" target="w5YBF5PKqjgF5pRnZRAa-30" edge="1">
          <mxGeometry width="160" relative="1" as="geometry">
            <mxPoint x="220" y="890" as="sourcePoint" />
            <mxPoint x="380" y="890" as="targetPoint" />
          </mxGeometry>
        </mxCell>
        <mxCell id="w5YBF5PKqjgF5pRnZRAa-40" value="&lt;font style=&quot;font-size: 14px;&quot;&gt;Произвести расчет&lt;/font&gt;" style="ellipse;whiteSpace=wrap;html=1;" parent="1" vertex="1">
          <mxGeometry x="190" y="610" width="120" height="80" as="geometry" />
        </mxCell>
        <mxCell id="w5YBF5PKqjgF5pRnZRAa-41" value="" style="endArrow=none;html=1;rounded=0;entryX=0;entryY=0.5;entryDx=0;entryDy=0;exitX=1;exitY=1;exitDx=0;exitDy=0;exitPerimeter=0;" parent="1" source="w5YBF5PKqjgF5pRnZRAa-12" target="w5YBF5PKqjgF5pRnZRAa-40" edge="1">
          <mxGeometry width="50" height="50" relative="1" as="geometry">
            <mxPoint x="480" y="740" as="sourcePoint" />
            <mxPoint x="530" y="690" as="targetPoint" />
          </mxGeometry>
        </mxCell>
        <mxCell id="w5YBF5PKqjgF5pRnZRAa-42" value="" style="endArrow=none;html=1;rounded=0;exitX=1;exitY=0.5;exitDx=0;exitDy=0;entryX=0;entryY=1;entryDx=0;entryDy=0;entryPerimeter=0;" parent="1" source="w5YBF5PKqjgF5pRnZRAa-40" target="w5YBF5PKqjgF5pRnZRAa-9" edge="1">
          <mxGeometry width="50" height="50" relative="1" as="geometry">
            <mxPoint x="480" y="740" as="sourcePoint" />
            <mxPoint x="530" y="690" as="targetPoint" />
          </mxGeometry>
        </mxCell>
        <mxCell id="w5YBF5PKqjgF5pRnZRAa-43" value="&lt;font style=&quot;font-size: 14px;&quot;&gt;Include&lt;/font&gt;" style="endArrow=open;endSize=12;dashed=1;html=1;rounded=0;exitX=0.5;exitY=1;exitDx=0;exitDy=0;entryX=0.5;entryY=0;entryDx=0;entryDy=0;" parent="1" source="w5YBF5PKqjgF5pRnZRAa-40" target="w5YBF5PKqjgF5pRnZRAa-17" edge="1">
          <mxGeometry width="160" relative="1" as="geometry">
            <mxPoint x="300" y="770" as="sourcePoint" />
            <mxPoint x="460" y="770" as="targetPoint" />
          </mxGeometry>
        </mxCell>
        <mxCell id="w5YBF5PKqjgF5pRnZRAa-44" value="&lt;font style=&quot;font-size: 14px;&quot;&gt;Выбрать функцию:&lt;/font&gt;&lt;div style=&quot;text-align: left;&quot;&gt;&lt;font style=&quot;font-size: 14px;&quot;&gt;1. &quot;Сколько километров я смогу проехать, израсходовав полный бак?&quot;&lt;/font&gt;&lt;/div&gt;&lt;div style=&quot;text-align: left;&quot;&gt;&lt;font style=&quot;font-size: 14px;&quot;&gt;2. &quot;Какова стоимость заправки бака топлива?&quot;&lt;/font&gt;&lt;/div&gt;&lt;div style=&quot;text-align: left;&quot;&gt;&lt;font style=&quot;font-size: 14px;&quot;&gt;3. &quot;Какова себестоимость транспортировки одной тонны груза на один километр?&quot;&lt;/font&gt;&lt;/div&gt;" style="ellipse;whiteSpace=wrap;html=1;align=center;" parent="1" vertex="1">
          <mxGeometry x="360" y="810" width="600" height="140" as="geometry" />
        </mxCell>
        <mxCell id="w5YBF5PKqjgF5pRnZRAa-46" value="&lt;font style=&quot;font-size: 14px;&quot;&gt;Include&lt;/font&gt;" style="endArrow=open;endSize=12;dashed=1;html=1;rounded=0;exitX=0.5;exitY=1;exitDx=0;exitDy=0;entryX=0.5;entryY=0;entryDx=0;entryDy=0;" parent="1" source="w5YBF5PKqjgF5pRnZRAa-40" target="w5YBF5PKqjgF5pRnZRAa-44" edge="1">
          <mxGeometry width="160" relative="1" as="geometry">
            <mxPoint x="390" y="680" as="sourcePoint" />
            <mxPoint x="550" y="680" as="targetPoint" />
          </mxGeometry>
        </mxCell>
        <mxCell id="w5YBF5PKqjgF5pRnZRAa-47" value="" style="endArrow=none;html=1;rounded=0;exitX=1;exitY=0.3333333333333333;exitDx=0;exitDy=0;exitPerimeter=0;entryX=0;entryY=0.5;entryDx=0;entryDy=0;" parent="1" source="w5YBF5PKqjgF5pRnZRAa-2" target="w5YBF5PKqjgF5pRnZRAa-14" edge="1">
          <mxGeometry width="50" height="50" relative="1" as="geometry">
            <mxPoint x="360" y="450" as="sourcePoint" />
            <mxPoint x="410" y="400" as="targetPoint" />
          </mxGeometry>
        </mxCell>
      </root>
    </mxGraphModel>
  </diagram>
</mxfile>
